<?xml version="1.0" standalone="no"?>
<!DOCTYPE svg PUBLIC "-//W3C//DTD SVG 20010904//EN"
 "http://www.w3.org/TR/2001/REC-SVG-20010904/DTD/svg10.dtd">
<svg version="1.0" xmlns="http://www.w3.org/2000/svg"
 width="1024.000000pt" height="1024.000000pt" viewBox="0 0 1024.000000 1024.000000"
 preserveAspectRatio="xMidYMid meet">

<g transform="translate(0.000000,1024.000000) scale(0.100000,-0.100000)"
fill="#000000" stroke="none">
<path d="M0 5120 l0 -5120 5120 0 5120 0 0 5120 0 5120 -5120 0 -5120 0 0
-5120z m5782 2175 c321 -319 780 -776 1021 -1015 l438 -435 -508 -504 c-279
-278 -740 -735 -1024 -1018 -283 -282 -517 -513 -520 -513 -2 0 -240 235 -529
523 -289 287 -751 745 -1027 1018 l-502 495 737 735 c1126 1122 1306 1299
1319 1297 7 -2 275 -264 595 -583z m-3627 -4356 c72 -88 140 -169 153 -181
l22 -21 0 176 c0 202 -5 192 96 185 l49 -3 3 -303 c1 -204 -1 -309 -9 -323 -9
-18 -18 -20 -62 -16 -41 4 -55 10 -71 33 -11 15 -77 95 -146 177 l-125 149 -3
-176 c-1 -97 -6 -176 -10 -176 -4 -1 -24 -3 -45 -6 -21 -3 -49 -3 -63 0 l-24
6 0 314 c0 172 3 316 7 319 3 4 27 7 52 7 l46 -1 130 -160z m1000 132 c69 -32
137 -101 168 -169 16 -35 21 -68 22 -127 0 -71 -4 -88 -33 -147 -37 -75 -88
-124 -168 -160 -74 -33 -200 -32 -274 3 -143 67 -220 217 -190 365 20 94 54
149 132 207 51 38 115 56 203 57 68 0 89 -4 140 -29z m529 23 c14 -5 16 -43
16 -320 l0 -314 -70 0 -70 0 0 320 0 320 54 0 c30 0 61 -3 70 -6z m631 -29
c83 -41 118 -93 123 -181 5 -78 -14 -137 -58 -179 -17 -16 -30 -33 -30 -38 0
-5 28 -51 61 -103 34 -52 58 -98 55 -102 -4 -3 -39 -8 -77 -10 -80 -5 -76 -8
-137 100 l-37 68 -60 -4 -60 -4 -5 -79 -5 -78 -65 -1 c-51 -1 -66 2 -72 15 -9
22 -10 616 0 625 4 4 75 6 157 4 143 -3 153 -4 210 -33z m810 18 c3 -10 3 -84
-1 -164 -4 -80 -3 -185 1 -232 l7 -87 133 0 133 0 6 -31 c3 -17 6 -49 6 -70
l0 -39 -215 0 -215 0 0 320 0 320 69 0 c56 0 70 -3 76 -17z m869 -12 c194 -96
247 -354 105 -515 -25 -28 -66 -58 -107 -78 -58 -29 -76 -33 -147 -33 -67 0
-90 5 -142 29 -69 31 -128 88 -165 158 -20 37 -23 58 -23 143 0 85 3 106 23
142 43 82 107 139 191 170 60 22 206 13 265 -16z m490 23 c14 -5 16 -43 16
-320 l0 -314 -70 0 -70 0 0 313 c0 173 3 317 7 320 8 9 96 9 117 1z m471 -5
c113 -21 193 -78 243 -174 22 -43 26 -63 27 -140 0 -106 -20 -157 -87 -223
-73 -73 -113 -86 -275 -90 l-143 -4 0 314 c0 173 3 318 7 321 10 11 164 8 228
-4z m903 -24 c48 -26 93 -67 92 -84 0 -3 -26 -21 -56 -40 l-56 -33 -48 26
c-55 30 -95 33 -148 11 -76 -32 -115 -90 -115 -171 0 -120 110 -204 237 -180
34 7 36 9 36 47 l0 40 -55 -6 -55 -7 0 65 c0 61 2 65 25 71 13 3 69 3 125 0
l101 -7 -3 -146 -3 -146 -45 -22 c-25 -12 -75 -27 -111 -33 -160 -27 -306 45
-375 187 -71 143 -14 328 127 419 55 35 96 44 189 41 72 -3 93 -7 138 -32z
m727 -40 l0 -70 -140 -3 -141 -3 -2 -59 -2 -60 119 0 c134 0 131 2 131 -87 l0
-42 -122 -3 -123 -3 -3 -47 -3 -48 145 0 145 0 6 -43 c4 -24 5 -55 3 -68 l-3
-24 -217 -3 -218 -2 0 314 0 315 23 4 c12 2 108 4 212 3 l190 -1 0 -70z"/>
<path d="M4311 6716 c-664 -663 -862 -866 -855 -877 17 -28 1716 -1710 1725
-1707 13 5 186 174 649 632 239 237 585 579 768 761 l333 329 -163 161 c-90
88 -482 475 -872 860 -389 385 -711 701 -715 702 -3 1 -395 -386 -870 -861z
m1658 -231 c326 -324 603 -599 614 -609 20 -19 19 -21 -419 -454 -241 -239
-561 -556 -710 -704 l-270 -269 -205 203 c-112 112 -431 427 -707 702 -276
274 -502 499 -502 501 0 3 954 950 1240 1232 l175 173 95 -93 c52 -50 362
-357 689 -682z"/>
<path d="M4627 6401 l-548 -546 547 -540 c301 -297 549 -539 552 -538 4 1 158
152 800 787 l304 299 -544 544 c-298 298 -547 542 -553 542 -5 -1 -257 -248
-558 -548z m317 -756 c126 -124 231 -224 232 -222 1 1 104 102 227 225 l225
222 163 0 162 0 -389 -384 -389 -384 -350 346 c-192 191 -364 361 -382 379
-18 17 -33 34 -33 37 0 3 69 6 153 6 l152 -1 229 -224z"/>
<path d="M2935 2941 c-73 -34 -106 -87 -107 -173 -1 -164 205 -239 319 -116
25 26 53 88 53 115 0 37 -22 94 -47 124 -54 64 -143 85 -218 50z"/>
<path d="M4113 2953 c-22 -4 -23 -9 -23 -99 l0 -94 56 0 c66 0 117 21 133 56
41 91 -44 161 -166 137z"/>
<path d="M5764 2942 c-136 -64 -139 -263 -4 -332 117 -60 270 31 270 159 0
138 -142 230 -266 173z"/>
<path d="M6860 2776 c0 -198 -6 -185 79 -165 58 13 97 42 121 89 24 47 25 88
5 137 -29 69 -69 98 -153 109 l-52 7 0 -177z"/>
</g>
</svg>
